<svg width="167" height="40" viewBox="0 0 167 40" fill="none" xmlns="http://www.w3.org/2000/svg">
<path d="M0 5C0 2.23858 2.23858 0 5 0H162C164.761 0 167 2.23858 167 5V35C167 37.7614 164.761 40 162 40H5C2.23858 40 0 37.7614 0 35V5Z" fill="#00BAFC"/>
<path d="M17.4375 14.5781H20.9922C22.612 14.5781 23.7865 14.8099 24.5156 15.2734C25.25 15.7318 25.6172 16.4635 25.6172 17.4688C25.6172 18.151 25.4557 18.7109 25.1328 19.1484C24.8151 19.5859 24.3906 19.849 23.8594 19.9375V20.0156C24.5833 20.1771 25.1042 20.4792 25.4219 20.9219C25.7448 21.3646 25.9062 21.9531 25.9062 22.6875C25.9062 23.7292 25.5286 24.5417 24.7734 25.125C24.0234 25.7083 23.0026 26 21.7109 26H17.4375V14.5781ZM19.8594 19.1016H21.2656C21.9219 19.1016 22.3958 19 22.6875 18.7969C22.9844 18.5938 23.1328 18.2578 23.1328 17.7891C23.1328 17.3516 22.9714 17.0391 22.6484 16.8516C22.3307 16.6589 21.8255 16.5625 21.1328 16.5625H19.8594V19.1016ZM19.8594 21.0234V24H21.4375C22.1042 24 22.5964 23.8724 22.9141 23.6172C23.2318 23.362 23.3906 22.9714 23.3906 22.4453C23.3906 21.4974 22.7135 21.0234 21.3594 21.0234H19.8594ZM34.1875 26L33.8672 24.8828H33.7422C33.487 25.2891 33.125 25.6042 32.6562 25.8281C32.1875 26.0469 31.6536 26.1562 31.0547 26.1562C30.0286 26.1562 29.2552 25.8828 28.7344 25.3359C28.2135 24.7839 27.9531 23.9922 27.9531 22.9609V17.2656H30.3359V22.3672C30.3359 22.9974 30.4479 23.4714 30.6719 23.7891C30.8958 24.1016 31.2526 24.2578 31.7422 24.2578C32.4089 24.2578 32.8906 24.0365 33.1875 23.5938C33.4844 23.1458 33.6328 22.4062 33.6328 21.375V17.2656H36.0156V26H34.1875ZM37.2656 17.2656H39.875L41.5234 22.1797C41.6641 22.6068 41.7604 23.112 41.8125 23.6953H41.8594C41.9167 23.1589 42.0286 22.6536 42.1953 22.1797L43.8125 17.2656H46.3672L42.6719 27.1172C42.3333 28.0286 41.849 28.7109 41.2188 29.1641C40.5938 29.6172 39.862 29.8438 39.0234 29.8438C38.612 29.8438 38.2083 29.7995 37.8125 29.7109V27.8203C38.099 27.888 38.4115 27.9219 38.75 27.9219C39.1719 27.9219 39.5391 27.7917 39.8516 27.5312C40.1693 27.276 40.4167 26.888 40.5938 26.3672L40.7344 25.9375L37.2656 17.2656ZM53.8125 26L53.4922 24.8828H53.3672C53.112 25.2891 52.75 25.6042 52.2812 25.8281C51.8125 26.0469 51.2786 26.1562 50.6797 26.1562C49.6536 26.1562 48.8802 25.8828 48.3594 25.3359C47.8385 24.7839 47.5781 23.9922 47.5781 22.9609V17.2656H49.9609V22.3672C49.9609 22.9974 50.0729 23.4714 50.2969 23.7891C50.5208 24.1016 50.8776 24.2578 51.3672 24.2578C52.0339 24.2578 52.5156 24.0365 52.8125 23.5938C53.1094 23.1458 53.2578 22.4062 53.2578 21.375V17.2656H55.6406V26H53.8125ZM63.0156 17.1016C63.3385 17.1016 63.6068 17.125 63.8203 17.1719L63.6406 19.4062C63.4479 19.3542 63.2135 19.3281 62.9375 19.3281C62.1771 19.3281 61.5833 19.5234 61.1562 19.9141C60.7344 20.3047 60.5234 20.8516 60.5234 21.5547V26H58.1406V17.2656H59.9453L60.2969 18.7344H60.4141C60.6849 18.2448 61.0495 17.8516 61.5078 17.5547C61.9714 17.2526 62.474 17.1016 63.0156 17.1016ZM69.0859 24.2578C69.5026 24.2578 70.0026 24.1667 70.5859 23.9844V25.7578C69.9922 26.0234 69.263 26.1562 68.3984 26.1562C67.4453 26.1562 66.75 25.9167 66.3125 25.4375C65.8802 24.9531 65.6641 24.2292 65.6641 23.2656V19.0547H64.5234V18.0469L65.8359 17.25L66.5234 15.4062H68.0469V17.2656H70.4922V19.0547H68.0469V23.2656C68.0469 23.6042 68.1406 23.8542 68.3281 24.0156C68.5208 24.1771 68.7734 24.2578 69.0859 24.2578ZM80.1797 26H77.7969V20.8984C77.7969 20.2682 77.6901 19.7969 77.4766 19.4844C77.2682 19.1667 76.9375 19.0078 76.4844 19.0078C75.875 19.0078 75.4323 19.2318 75.1562 19.6797C74.8802 20.1276 74.7422 20.8646 74.7422 21.8906V26H72.3594V17.2656H74.1797L74.5 18.3828H74.6328C74.8672 17.9818 75.2057 17.6693 75.6484 17.4453C76.0911 17.2161 76.599 17.1016 77.1719 17.1016C78.4792 17.1016 79.3646 17.5286 79.8281 18.3828H80.0391C80.2734 17.9766 80.6172 17.6615 81.0703 17.4375C81.5286 17.2135 82.0443 17.1016 82.6172 17.1016C83.6068 17.1016 84.3542 17.3568 84.8594 17.8672C85.3698 18.3724 85.625 19.1849 85.625 20.3047V26H83.2344V20.8984C83.2344 20.2682 83.1276 19.7969 82.9141 19.4844C82.7057 19.1667 82.375 19.0078 81.9219 19.0078C81.3385 19.0078 80.901 19.2161 80.6094 19.6328C80.3229 20.0495 80.1797 20.7109 80.1797 21.6172V26ZM93.625 26L93.1641 24.8125H93.1016C92.7005 25.3177 92.2865 25.6693 91.8594 25.8672C91.4375 26.0599 90.8854 26.1562 90.2031 26.1562C89.3646 26.1562 88.7031 25.9167 88.2188 25.4375C87.7396 24.9583 87.5 24.276 87.5 23.3906C87.5 22.4635 87.8229 21.7812 88.4688 21.3438C89.1198 20.901 90.099 20.6562 91.4062 20.6094L92.9219 20.5625V20.1797C92.9219 19.2943 92.4688 18.8516 91.5625 18.8516C90.8646 18.8516 90.0443 19.0625 89.1016 19.4844L88.3125 17.875C89.3177 17.349 90.4323 17.0859 91.6562 17.0859C92.8281 17.0859 93.7266 17.3411 94.3516 17.8516C94.9766 18.362 95.2891 19.138 95.2891 20.1797V26H93.625ZM92.9219 21.9531L92 21.9844C91.3073 22.0052 90.7917 22.1302 90.4531 22.3594C90.1146 22.5885 89.9453 22.9375 89.9453 23.4062C89.9453 24.0781 90.3307 24.4141 91.1016 24.4141C91.6536 24.4141 92.0938 24.2552 92.4219 23.9375C92.7552 23.6198 92.9219 23.1979 92.9219 22.6719V21.9531ZM106.766 17.1016C107.797 17.1016 108.604 17.5052 109.188 18.3125C109.771 19.1146 110.062 20.2161 110.062 21.6172C110.062 23.0599 109.76 24.1771 109.156 24.9688C108.557 25.7604 107.74 26.1562 106.703 26.1562C105.677 26.1562 104.872 25.7839 104.289 25.0391H104.125L103.727 26H101.906V13.8438H104.289V16.6719C104.289 17.0312 104.258 17.6068 104.195 18.3984H104.289C104.846 17.5339 105.672 17.1016 106.766 17.1016ZM106 19.0078C105.411 19.0078 104.982 19.1901 104.711 19.5547C104.44 19.9141 104.299 20.5104 104.289 21.3438V21.6016C104.289 22.5391 104.427 23.2109 104.703 23.6172C104.984 24.0234 105.427 24.2266 106.031 24.2266C106.521 24.2266 106.909 24.0026 107.195 23.5547C107.487 23.1016 107.633 22.4453 107.633 21.5859C107.633 20.7266 107.487 20.0833 107.195 19.6562C106.904 19.224 106.505 19.0078 106 19.0078ZM115.648 18.7969C115.143 18.7969 114.747 18.9583 114.461 19.2812C114.174 19.599 114.01 20.0521 113.969 20.6406H117.312C117.302 20.0521 117.148 19.599 116.852 19.2812C116.555 18.9583 116.154 18.7969 115.648 18.7969ZM115.984 26.1562C114.578 26.1562 113.479 25.7682 112.688 24.9922C111.896 24.2161 111.5 23.1172 111.5 21.6953C111.5 20.2318 111.865 19.1016 112.594 18.3047C113.328 17.5026 114.341 17.1016 115.633 17.1016C116.867 17.1016 117.828 17.4531 118.516 18.1562C119.203 18.8594 119.547 19.8307 119.547 21.0703V22.2266H113.914C113.94 22.9036 114.141 23.4323 114.516 23.8125C114.891 24.1927 115.417 24.3828 116.094 24.3828C116.62 24.3828 117.117 24.3281 117.586 24.2188C118.055 24.1094 118.544 23.9349 119.055 23.6953V25.5391C118.638 25.7474 118.193 25.901 117.719 26C117.245 26.1042 116.667 26.1562 115.984 26.1562ZM126.359 17.1016C126.682 17.1016 126.951 17.125 127.164 17.1719L126.984 19.4062C126.792 19.3542 126.557 19.3281 126.281 19.3281C125.521 19.3281 124.927 19.5234 124.5 19.9141C124.078 20.3047 123.867 20.8516 123.867 21.5547V26H121.484V17.2656H123.289L123.641 18.7344H123.758C124.029 18.2448 124.393 17.8516 124.852 17.5547C125.315 17.2526 125.818 17.1016 126.359 17.1016ZM128.648 15.0078C128.648 14.2318 129.081 13.8438 129.945 13.8438C130.81 13.8438 131.242 14.2318 131.242 15.0078C131.242 15.3776 131.133 15.6667 130.914 15.875C130.701 16.0781 130.378 16.1797 129.945 16.1797C129.081 16.1797 128.648 15.7891 128.648 15.0078ZM131.133 26H128.75V17.2656H131.133V26ZM139.734 23.4062C139.734 24.3021 139.422 24.9844 138.797 25.4531C138.177 25.9219 137.247 26.1562 136.008 26.1562C135.372 26.1562 134.831 26.112 134.383 26.0234C133.935 25.9401 133.516 25.8151 133.125 25.6484V23.6797C133.568 23.888 134.065 24.0625 134.617 24.2031C135.174 24.3438 135.664 24.4141 136.086 24.4141C136.951 24.4141 137.383 24.1641 137.383 23.6641C137.383 23.4766 137.326 23.3255 137.211 23.2109C137.096 23.0911 136.898 22.9583 136.617 22.8125C136.336 22.6615 135.961 22.487 135.492 22.2891C134.82 22.0078 134.326 21.7474 134.008 21.5078C133.695 21.2682 133.466 20.9948 133.32 20.6875C133.18 20.375 133.109 19.9922 133.109 19.5391C133.109 18.763 133.409 18.1641 134.008 17.7422C134.612 17.3151 135.466 17.1016 136.57 17.1016C137.622 17.1016 138.646 17.3307 139.641 17.7891L138.922 19.5078C138.484 19.3203 138.076 19.1667 137.695 19.0469C137.315 18.9271 136.927 18.8672 136.531 18.8672C135.828 18.8672 135.477 19.0573 135.477 19.4375C135.477 19.651 135.589 19.8359 135.812 19.9922C136.042 20.1484 136.539 20.3802 137.305 20.6875C137.987 20.9635 138.487 21.2214 138.805 21.4609C139.122 21.7005 139.357 21.9766 139.508 22.2891C139.659 22.6016 139.734 22.974 139.734 23.4062ZM149.656 26H147.273V20.8984C147.273 19.638 146.805 19.0078 145.867 19.0078C145.201 19.0078 144.719 19.2344 144.422 19.6875C144.125 20.1406 143.977 20.875 143.977 21.8906V26H141.594V13.8438H143.977V16.3203C143.977 16.513 143.958 16.9661 143.922 17.6797L143.867 18.3828H143.992C144.523 17.5286 145.367 17.1016 146.523 17.1016C147.549 17.1016 148.328 17.3776 148.859 17.9297C149.391 18.4818 149.656 19.2734 149.656 20.3047V26Z" fill="white"/>
</svg>
